<svg width="169" height="119" viewBox="0 0 169 119" fill="none" xmlns="http://www.w3.org/2000/svg">
<path d="M21.3957 99.3054L0.690184 22.0314C0.309006 20.6088 1.15323 19.1466 2.57581 18.7654L41.2128 8.41262L67.3407 23.4976L75.6229 54.4072L83.215 82.741C83.5961 84.1636 82.7519 85.6258 81.3293 86.007L24.6617 101.191C23.2391 101.572 21.7769 100.728 21.3957 99.3054Z" fill="#D47474"/>
<path d="M40.6825 9.33118L45.3197 26.6373C45.8081 28.46 47.6815 29.5417 49.5042 29.0533L66.8104 24.4161L74.8985 54.6013L82.4905 82.9351C82.7645 83.9576 82.1577 85.0086 81.1352 85.2826L24.4676 100.467C23.4451 100.741 22.3941 100.134 22.1202 99.1113L1.41463 21.8373C1.14066 20.8148 1.74744 19.7638 2.76992 19.4898L40.6825 9.33118ZM46.7686 26.2491L42.4059 9.96747L65.3976 23.2418L49.116 27.6044C48.0935 27.8784 47.0425 27.2716 46.7686 26.2491ZM23.241 44.3727L54.1506 36.0905C55.1731 35.8165 56.224 36.4233 56.498 37.4458L59.9489 50.3248C60.2229 51.3473 59.6161 52.3983 58.5936 52.6722L27.684 60.9545C26.6615 61.2284 25.6106 60.6216 25.3366 59.5992L21.8857 46.7202C21.6117 45.6977 22.2185 44.6467 23.241 44.3727ZM53.7624 34.6416L22.8527 42.9238C21.03 43.4122 19.9484 45.2857 20.4368 47.1084L23.8877 59.9874C24.3761 61.8101 26.2496 62.8917 28.0722 62.4033L58.9819 54.1211C60.8045 53.6328 61.8862 51.7593 61.3978 49.9366L57.9469 37.0576C57.4585 35.2349 55.585 34.1532 53.7624 34.6416ZM25.6814 74.0869L46.2878 68.5655L45.8996 67.1166L25.2931 72.638L25.6814 74.0869ZM69.6549 73.3472L69.2667 71.8983L28.0539 82.9412L28.4421 84.3901L69.6549 73.3472Z" stroke="black" stroke-opacity="0.2" stroke-width="1.5"/>
<path d="M51.9526 85.3862V5.38615C51.9526 3.91339 53.1465 2.71948 54.6193 2.71948L94.6193 2.71948L115.953 24.0528V56.0528V85.3862C115.953 86.8589 114.759 88.0528 113.286 88.0528H54.6193C53.1465 88.0528 51.9526 86.8589 51.9526 85.3862Z" fill="#74A0D4"/>
<path d="M93.8693 3.46948V21.3861C93.8693 23.2731 95.399 24.8028 97.286 24.8028H115.203V56.0528V85.3862C115.203 86.4447 114.345 87.3028 113.286 87.3028H54.6193C53.5608 87.3028 52.7026 86.4447 52.7026 85.3862V5.38615C52.7026 4.32761 53.5608 3.46948 54.6193 3.46948L93.8693 3.46948ZM95.3693 21.3861V4.53014L114.142 23.3028H97.286C96.2274 23.3028 95.3693 22.4447 95.3693 21.3861ZM67.9526 32.8028H99.9526C101.011 32.8028 101.869 33.6609 101.869 34.7195V48.0528C101.869 49.1114 101.011 49.9695 99.9526 49.9695H67.9526C66.8941 49.9695 66.036 49.1114 66.036 48.0528V34.7195C66.036 33.6609 66.8941 32.8028 67.9526 32.8028ZM99.9526 31.3028H67.9526C66.0657 31.3028 64.536 32.8325 64.536 34.7195V48.0528C64.536 49.9398 66.0657 51.4695 67.9526 51.4695H99.9526C101.84 51.4695 103.369 49.9398 103.369 48.0528V34.7195C103.369 32.8325 101.84 31.3028 99.9526 31.3028ZM62.6193 62.1362H83.9526V60.6362H62.6193V62.1362ZM105.286 72.8028V71.3028H62.6193V72.8028H105.286Z" stroke="black" stroke-opacity="0.2" stroke-width="1.5"/>
<path d="M85.0711 79.8499L105.777 2.5758C106.158 1.15323 107.62 0.309007 109.043 0.690185L147.68 11.0429L162.765 37.1708L154.482 68.0805L146.89 96.4143C146.509 97.8369 145.047 98.6811 143.624 98.2999L86.9567 83.1159C85.5341 82.7347 84.6899 81.2724 85.0711 79.8499Z" fill="#92D474"/>
<path d="M146.761 11.5733L142.124 28.8794C141.636 30.7021 142.717 32.5756 144.54 33.064L161.846 37.7012L153.758 67.8864L146.166 96.2202C145.892 97.2426 144.841 97.8494 143.818 97.5755L87.1508 82.3914C86.1283 82.1174 85.5216 81.0665 85.7955 80.044L106.501 2.76992C106.775 1.74744 107.826 1.14066 108.848 1.41463L146.761 11.5733ZM143.573 29.2677L147.935 12.986L161.21 35.9778L144.928 31.6151C143.906 31.3411 143.299 30.2902 143.573 29.2677ZM114.135 33.1994L145.045 41.4816C146.068 41.7556 146.674 42.8065 146.4 43.829L142.949 56.708C142.675 57.7305 141.625 58.3373 140.602 58.0633L109.692 49.7811C108.67 49.5071 108.063 48.4561 108.337 47.4337L111.788 34.5547C112.062 33.5322 113.113 32.9254 114.135 33.1994ZM145.433 40.0327L114.524 31.7505C112.701 31.2621 110.828 32.3438 110.339 34.1664L106.888 47.0454C106.4 48.8681 107.482 50.7416 109.304 51.23L140.214 59.5122C142.036 60.0006 143.91 58.9189 144.398 57.0963L147.849 44.2172C148.338 42.3946 147.256 40.5211 145.433 40.0327ZM101.392 60.1528L121.998 65.6743L122.386 64.2254L101.78 58.7039L101.392 60.1528ZM139.844 81.499L140.232 80.0501L99.0193 69.0072L98.6311 70.456L139.844 81.499Z" stroke="black" stroke-opacity="0.2" stroke-width="1.5"/>
<rect x="118.75" y="71.75" width="46.5" height="46.5" rx="23.25" fill="white" stroke="#9F9F9F" stroke-width="1.5"/>
<path d="M154 87.5H136C132.686 87.5 130 90.1863 130 93.5V95V93.5C130 90.1863 132.149 87.5 134.8 87.5H154ZM154 87.5L148 92M154 87.5L148 83" stroke="black" stroke-opacity="0.8" stroke-width="1.5"/>
<path d="M130 102.5L148 102.5C151.314 102.5 154 99.8137 154 96.5L154 95L154 96.5C154 99.8137 151.851 102.5 149.2 102.5L130 102.5ZM130 102.5L136 98M130 102.5L136 107" stroke="black" stroke-opacity="0.8" stroke-width="1.5"/>
</svg>
