<svg width="22" height="16" viewBox="0 0 22 16" fill="none" xmlns="http://www.w3.org/2000/svg">
<path d="M11.25 14.25C11.3881 14.1119 11.3881 13.8881 11.25 13.75C11.1119 13.6119 10.8881 13.6119 10.75 13.75C10.6119 13.8881 10.6119 14.1119 10.75 14.25C10.8881 14.3881 11.1119 14.3881 11.25 14.25Z" fill="black"/>
<path d="M4 1V1C2.34315 1 1 2.34315 1 4V12C1 13.6569 2.34315 15 4 15V15M18 15V15C19.6569 15 21 13.6569 21 12V4C21 2.34315 19.6569 1 18 1V1M11 12V9.41421C11 8.50871 11.3597 7.64029 12 7L12.0389 6.96113C12.6543 6.34573 13 5.51106 13 4.64075V4C13 3.37049 12.7036 2.77771 12.2 2.4V2.4C11.4889 1.86667 10.5111 1.86667 9.8 2.4V2.4C9.29639 2.77771 9 3.37049 9 4V5M11.25 13.75V13.75C11.1119 13.6119 10.8881 13.6119 10.75 13.75V13.75C10.6119 13.8881 10.6119 14.1119 10.75 14.25V14.25C10.8881 14.3881 11.1119 14.3881 11.25 14.25V14.25C11.3881 14.1119 11.3881 13.8881 11.25 13.75Z" stroke="black"/>
</svg>
